<?xml version="1.0" standalone="no"?>
<!DOCTYPE svg PUBLIC "-//W3C//DTD SVG 20010904//EN"
 "http://www.w3.org/TR/2001/REC-SVG-20010904/DTD/svg10.dtd">
<svg version="1.0" xmlns="http://www.w3.org/2000/svg"
 width="786.000000pt" height="351.000000pt" viewBox="0 0 786.000000 351.000000"
 preserveAspectRatio="xMidYMid meet">

<g transform="translate(0.000000,351.000000) scale(0.100000,-0.100000)"
fill="#000000" stroke="none">
<path d="M0 1755 l0 -1755 3930 0 3930 0 0 1755 0 1755 -3930 0 -3930 0 0
-1755z m1465 980 c97 -25 184 -74 256 -145 74 -74 114 -136 146 -230 l22 -65
1 228 0 227 323 0 c350 0 400 -6 500 -56 128 -64 245 -196 284 -321 16 -50 16
-55 -1 -89 -33 -70 -56 -194 -56 -303 0 -122 -8 -141 -100 -223 l-58 -53 164
-230 c90 -127 164 -233 164 -238 0 -4 -105 -6 -232 -5 l-233 3 -180 254 -180
253 -5 -253 -5 -254 -192 -3 -193 -2 -1 422 c-1 373 -2 417 -14 374 -30 -110
-107 -223 -200 -293 -119 -91 -227 -123 -417 -123 l-118 0 0 -190 0 -190 -190
0 -190 0 0 760 0 760 323 0 c256 0 335 -3 382 -15z m2433 -1 c94 -19 202 -68
290 -131 l67 -48 -70 -12 c-129 -24 -222 -62 -327 -135 -52 -37 -63 -40 -130
-43 -155 -5 -282 -95 -342 -243 -28 -69 -26 -190 3 -264 30 -78 109 -163 184
-199 l59 -27 -43 -32 c-93 -67 -219 -113 -345 -126 l-62 -7 -47 64 c-96 130
-143 258 -152 411 -14 228 54 413 211 576 185 192 441 270 704 216z m2297
-189 c76 -112 141 -203 144 -200 3 2 67 94 141 204 l135 200 243 1 243 0 -54
-77 c-309 -442 -468 -677 -464 -686 3 -7 118 -176 256 -376 138 -200 251 -368
251 -372 0 -5 -106 -9 -234 -9 l-235 0 -136 200 c-74 109 -139 202 -144 205
-5 3 -71 -87 -148 -200 l-138 -204 -805 2 -805 2 -3 190 c-2 188 -2 191 25
250 60 135 83 283 64 415 -12 82 -64 245 -82 256 -5 3 -9 95 -9 205 l0 199
808 0 808 0 139 -205z m-1850 -97 c104 -141 148 -276 148 -458 1 -181 -51
-332 -163 -471 -265 -332 -734 -380 -1080 -110 l-25 19 25 5 c169 32 283 77
375 146 47 35 56 39 130 43 97 5 172 36 239 98 126 116 153 324 61 470 -32 51
-110 119 -162 142 l-46 20 29 24 c80 65 267 132 372 133 l52 1 45 -62z m-3055
-1418 c-18 -25 -50 -41 -50 -25 0 24 27 55 47 55 l24 0 -21 -30z m850 -5 c0
-18 -5 -25 -20 -25 -15 0 -20 7 -20 25 0 18 5 25 20 25 15 0 20 -7 20 -25z
m620 0 c0 -18 -5 -25 -20 -25 -15 0 -20 7 -20 25 0 18 5 25 20 25 15 0 20 -7
20 -25z m2453 14 c16 -9 22 -9 25 0 6 18 34 13 30 -5 -5 -30 -34 -40 -70 -26
-21 8 -34 9 -36 2 -5 -15 -32 -12 -32 3 0 34 43 47 83 26z m1532 -14 c30 -29
33 -65 6 -65 -10 0 -21 9 -24 19 -11 42 -127 34 -127 -8 0 -25 21 -37 83 -46
80 -12 115 -57 91 -120 -10 -26 -59 -45 -114 -45 -44 0 -56 5 -81 29 -33 33
-39 71 -11 71 9 0 22 -10 27 -22 21 -47 136 -48 143 -1 4 26 -17 39 -81 48
-67 10 -97 37 -97 85 0 54 34 80 107 80 44 0 58 -5 78 -25z m285 10 c28 -14
60 -60 60 -85 0 -19 -39 -10 -45 10 -9 30 -61 53 -103 46 -56 -9 -82 -40 -82
-101 0 -59 24 -90 76 -101 43 -8 102 18 110 50 4 17 13 26 25 26 41 0 7 -77
-46 -106 -48 -26 -127 -15 -166 22 -35 33 -52 90 -43 140 7 39 46 91 78 104
34 14 105 11 136 -5z m-6075 -20 c17 -16 25 -35 25 -60 0 -25 -8 -44 -25 -60
-21 -22 -33 -25 -90 -25 l-65 0 0 -55 c0 -48 -2 -55 -20 -55 -19 0 -20 7 -20
140 l0 140 85 0 c78 0 88 -2 110 -25z m835 5 c24 -24 27 -91 5 -110 -12 -10
-13 -16 -3 -27 7 -8 15 -39 18 -69 6 -51 5 -54 -17 -54 -21 0 -23 5 -23 44 0
62 -17 76 -91 76 l-59 0 0 -60 c0 -53 -2 -60 -20 -60 -19 0 -20 7 -20 140 l0
140 95 0 c82 0 98 -3 115 -20z m1590 -120 c0 -133 -1 -140 -20 -140 -11 0 -20
5 -20 10 0 7 -6 7 -19 0 -30 -16 -94 -12 -117 8 -81 65 -42 191 59 192 21 0
47 -5 58 -10 17 -10 19 -7 19 35 0 38 3 45 20 45 19 0 20 -7 20 -140z m630
120 c0 -18 -7 -20 -85 -20 l-85 0 0 -35 0 -35 80 0 c73 0 80 -2 80 -20 0 -18
-7 -20 -80 -20 l-80 0 0 -45 0 -45 90 0 c83 0 90 -1 90 -20 0 -19 -7 -20 -110
-20 l-110 0 0 140 0 140 105 0 c98 0 105 -1 105 -20z m2040 -77 c0 -54 4 -103
8 -109 25 -38 112 -41 132 -4 5 10 10 62 10 114 0 89 1 96 20 96 19 0 20 -7
20 -111 0 -109 0 -111 -29 -140 -26 -25 -37 -29 -86 -29 -49 0 -60 4 -86 29
-29 29 -29 31 -29 140 0 104 1 111 20 111 19 0 20 -7 20 -97z m460 77 c0 -18
-7 -20 -85 -20 l-85 0 0 -35 0 -35 80 0 c73 0 80 -2 80 -20 0 -18 -7 -20 -80
-20 l-80 0 0 -45 0 -45 90 0 c83 0 90 -1 90 -20 0 -19 -7 -20 -110 -20 l-110
0 0 140 0 140 105 0 c98 0 105 -1 105 -20z m-4250 -20 c0 -23 4 -30 20 -30 11
0 20 -7 20 -15 0 -8 -9 -15 -20 -15 -18 0 -20 -7 -20 -76 0 -71 1 -76 20 -71
15 4 20 0 20 -14 0 -15 -7 -19 -35 -19 -44 0 -55 23 -55 116 0 50 -3 64 -15
64 -8 0 -15 7 -15 15 0 8 7 15 15 15 10 0 15 10 15 30 0 25 4 30 25 30 21 0
25 -5 25 -30z m2070 0 c0 -23 4 -30 20 -30 11 0 20 -7 20 -15 0 -8 -9 -15 -20
-15 -18 0 -20 -7 -20 -76 0 -71 1 -76 20 -71 15 4 20 0 20 -14 0 -15 -7 -19
-35 -19 -44 0 -55 23 -55 116 0 50 -3 64 -15 64 -8 0 -15 5 -15 12 0 15 -53
-36 -70 -67 -12 -22 -9 -28 30 -74 l42 -51 -31 0 c-17 0 -31 3 -31 8 -1 4 -12
21 -25 37 l-25 30 -33 -38 c-23 -28 -39 -38 -54 -35 -21 3 -20 6 18 55 l41 52
-29 38 c-46 59 -47 63 -20 63 17 0 32 -11 48 -35 13 -19 27 -35 31 -35 3 0 16
16 28 35 19 31 26 35 66 35 42 0 44 1 44 30 0 25 4 30 25 30 21 0 25 -5 25
-30z m-3280 -46 c0 -14 2 -14 22 0 33 23 68 21 68 -5 0 -15 -5 -19 -19 -14
-11 3 -28 -2 -42 -14 -19 -16 -24 -30 -27 -90 -4 -61 -7 -71 -23 -71 -17 0
-19 9 -19 105 0 98 1 105 20 105 11 0 20 -7 20 -16z m287 -8 c25 -21 28 -31
28 -81 0 -50 -3 -60 -28 -81 -35 -30 -110 -33 -143 -6 -44 35 -56 94 -30 141
30 55 124 69 173 27z m674 14 c22 -12 49 -61 49 -90 0 -19 -6 -20 -91 -20
l-91 0 14 -22 c24 -36 64 -46 100 -25 16 9 39 17 51 17 20 -1 19 -3 -11 -30
-57 -52 -158 -35 -181 32 -26 74 24 148 100 148 22 0 49 -5 60 -10z m129 -95
c0 -98 -1 -105 -20 -105 -19 0 -20 7 -20 105 0 98 1 105 20 105 19 0 20 -7 20
-105z m361 76 c24 -24 29 -38 29 -76 0 -63 -39 -105 -99 -105 -75 0 -121 41
-121 107 1 63 46 102 118 103 35 0 49 -6 73 -29z m109 13 c0 -14 2 -14 22 0
33 23 68 21 68 -5 0 -15 -5 -19 -19 -14 -11 3 -28 -2 -42 -14 -19 -16 -24 -30
-27 -90 -4 -61 -7 -71 -23 -71 -17 0 -19 9 -19 105 0 98 1 105 20 105 11 0 20
-7 20 -16z m150 -89 c0 -98 -1 -105 -20 -105 -19 0 -20 7 -20 105 0 98 1 105
20 105 19 0 20 -7 20 -105z m212 88 c14 -13 18 -31 18 -85 0 -52 4 -70 15 -74
8 -4 15 -12 15 -20 0 -17 -41 -19 -57 -3 -8 8 -17 8 -31 0 -31 -16 -93 -13
-114 6 -42 38 -8 103 54 103 66 0 106 42 52 56 -28 7 -74 -9 -74 -26 0 -5 -9
-10 -20 -10 -28 0 -26 35 2 54 30 22 116 21 140 -1z m609 7 c22 -12 49 -61 49
-90 0 -19 -6 -20 -91 -20 l-91 0 14 -22 c24 -36 64 -46 100 -25 16 9 39 17 51
17 20 -1 19 -3 -11 -30 -57 -52 -158 -35 -181 32 -26 74 24 148 100 148 22 0
49 -5 60 -10z m980 0 c22 -12 49 -61 49 -90 0 -19 -6 -20 -91 -20 l-91 0 14
-22 c24 -36 64 -46 100 -25 16 9 39 17 51 17 20 -1 19 -3 -11 -30 -57 -52
-158 -35 -181 32 -26 74 24 148 100 148 22 0 49 -5 60 -10z m119 -6 c0 -14 2
-14 22 0 23 17 85 21 104 8 24 -15 34 -54 34 -126 0 -68 -2 -76 -19 -76 -17 0
-19 9 -23 80 -3 82 -12 99 -49 100 -9 0 -27 -8 -40 -19 -19 -16 -24 -30 -27
-90 -4 -61 -7 -71 -23 -71 -17 0 -19 9 -19 105 0 98 1 105 20 105 11 0 20 -7
20 -16z m357 -6 c28 -26 30 -48 3 -48 -11 0 -20 5 -20 10 0 17 -46 33 -74 26
-26 -6 -35 -29 -17 -41 5 -3 33 -10 63 -15 78 -15 98 -51 53 -95 -19 -20 -34
-25 -73 -25 -52 0 -102 27 -102 56 0 20 28 17 57 -6 30 -23 62 -26 88 -7 26
20 12 34 -42 42 -65 9 -93 28 -93 65 0 38 32 60 89 60 32 0 51 -6 68 -22z
m233 2 c16 -16 20 -33 20 -90 0 -56 3 -70 15 -70 8 0 15 -7 15 -15 0 -17 -55
-21 -65 -5 -4 7 -12 7 -25 0 -28 -15 -93 -12 -118 6 -12 8 -22 25 -22 38 0 40
23 58 85 67 69 9 89 24 61 45 -28 20 -63 17 -86 -6 -23 -23 -50 -26 -50 -6 0
50 129 77 170 36z m251 -9 c24 -24 29 -38 29 -76 0 -63 -39 -105 -99 -105 -75
0 -121 41 -121 107 1 63 46 102 118 103 35 0 49 -6 73 -29z m-3991 -76 c0 -12
-14 -15 -70 -15 -56 0 -70 3 -70 15 0 12 14 15 70 15 56 0 70 -3 70 -15z
m4310 0 c0 -12 -14 -15 -70 -15 -56 0 -70 3 -70 15 0 12 14 15 70 15 56 0 70
-3 70 -15z"/>
<path d="M1140 2187 l0 -186 93 -3 c50 -2 114 2 140 8 153 36 188 244 55 331
-39 26 -50 28 -165 32 l-123 3 0 -185z"/>
<path d="M2280 2185 l0 -185 88 -1 c123 -2 142 1 184 22 100 51 125 191 51
280 -45 53 -93 69 -215 69 l-108 0 0 -185z"/>
<path d="M5580 2553 l0 -183 -375 0 -375 0 0 -95 0 -95 185 0 185 0 0 -190 0
-190 -185 0 -185 0 0 -90 0 -90 375 0 375 0 0 -180 c0 -99 3 -180 8 -180 8 1
504 721 504 733 0 8 -463 684 -494 721 -17 20 -17 12 -18 -161z"/>
<path d="M800 955 l0 -45 44 0 c66 0 96 14 96 45 0 31 -30 45 -96 45 l-44 0 0
-45z"/>
<path d="M1620 960 l0 -40 56 0 c64 0 94 13 94 40 0 27 -30 40 -94 40 l-56 0
0 -40z"/>
<path d="M3225 915 c-14 -13 -25 -36 -25 -50 0 -29 40 -75 65 -75 20 0 57 19
67 34 18 26 8 75 -18 95 -35 27 -59 26 -89 -4z"/>
<path d="M1215 915 c-14 -13 -25 -36 -25 -50 0 -30 41 -75 68 -75 35 0 72 38
72 75 0 24 -7 39 -26 54 -35 27 -59 26 -89 -4z"/>
<path d="M1912 924 c-42 -29 -28 -44 43 -44 36 0 65 3 65 8 0 13 -15 29 -37
41 -29 15 -44 14 -71 -5z"/>
<path d="M2376 917 c-15 -15 -26 -38 -26 -52 0 -14 11 -37 26 -52 20 -20 31
-24 57 -19 39 8 57 30 57 71 0 41 -18 63 -57 71 -26 5 -37 1 -57 -19z"/>
<path d="M2893 847 c-42 -7 -53 -12 -53 -28 0 -37 92 -32 106 6 10 26 0 31
-53 22z"/>
<path d="M3482 924 c-42 -29 -28 -44 43 -44 36 0 65 3 65 8 0 13 -15 29 -37
41 -29 15 -44 14 -71 -5z"/>
<path d="M4462 924 c-42 -29 -28 -44 43 -44 36 0 65 3 65 8 0 13 -15 29 -37
41 -29 15 -44 14 -71 -5z"/>
<path d="M5191 849 c-55 -11 -69 -23 -51 -45 16 -18 71 -14 96 7 15 12 20 50
7 48 -5 -1 -28 -5 -52 -10z"/>
<path d="M5396 917 c-15 -15 -26 -38 -26 -52 0 -14 11 -37 26 -52 20 -20 31
-24 57 -19 39 8 57 30 57 71 0 41 -18 63 -57 71 -26 5 -37 1 -57 -19z"/>
</g>
</svg>
