<svg width="24" height="24" xmlns="http://www.w3.org/2000/svg">
 <title/>
 <desc/>

 <g>
  <title>background</title>
  <rect fill="none" id="canvas_background" height="402" width="582" y="-1" x="-1"/>
 </g>
 <g>
  <title>Layer 1</title>
  <path stroke="null" id="business-suitcase-glyph" fill="#ffffff" d="m14.145854,11.723786l1.009619,0l7.844528,0l0,8.245524c0,1.030689 -1.082173,1.030689 -1.082173,1.030689l-19.479122,0c0,0 -1.082173,0 -1.082173,-1.030689l0,-8.245524l7.875517,0l0.978629,0l0,0.91893c0,0.517112 0.436165,0.936313 0.993012,0.936313l1.949152,0c0.548426,0 0.993012,-0.411261 0.993012,-0.936313l0,-0.91893l0,0zm-0.000039,-0.927621l0.983833,0l7.870352,0l0,-3.583995c0,-1.054112 -1.082173,-1.054112 -1.082173,-1.054112l-19.479122,0c0,0 -1.082173,0 -1.082173,1.054112l0,3.583995l7.870352,0l0.983833,0c0.00488,-0.520887 0.447577,-0.927621 0.992973,-0.927621l1.949152,0c0.553719,0 0.988113,0.414517 0.992973,0.927621l0,0zm0.053597,-6.512598l-3.977922,0l0,1.874491l-0.994606,0l0,-1.623337c0,-1.159527 1.135151,-1.159527 1.135151,-1.159527l3.632463,0c0,0 1.135151,0 1.135151,1.159527l0,1.623337l-0.930236,0l0,-1.874491zm-3.00494,6.512598l0,1.855243l1.967588,0l0,-1.855243l-1.967588,0z"/>
 </g>
</svg>