<?xml version="1.0" encoding="UTF-8"?>
<svg xmlns="http://www.w3.org/2000/svg" xmlns:xlink="http://www.w3.org/1999/xlink" viewBox="0 0 64 64" width="64px" height="64px">
<g id="surface1603134">
<path style=" stroke:none;fill-rule:nonzero;fill:rgb(100%,100%,100%);fill-opacity:1;" d="M 16 61 L 48 61 C 51.601562 61 54.5 58.101562 54.5 54.5 L 54.5 14.5 C 54.5 11.449219 53.300781 8.550781 51.148438 6.351562 C 49 4.148438 46.050781 3 43 3 L 16 3 C 12.398438 3 9.5 5.898438 9.5 9.5 L 9.5 54.5 C 9.5 58.101562 12.398438 61 16 61 Z M 43.050781 46 L 21.050781 46 C 20.199219 46 19.550781 45.351562 19.550781 44.5 C 19.550781 43.648438 20.199219 43 21.050781 43 L 43.050781 43 C 43.898438 43 44.550781 43.648438 44.550781 44.5 C 44.550781 45.351562 43.898438 46 43.050781 46 Z M 49 8.5 C 50.25 9.75 51.050781 11.300781 51.351562 13 L 48 13 C 46.050781 13 44.5 11.449219 44.5 9.5 L 44.5 6.148438 C 46.199219 6.449219 47.75 7.25 49 8.5 Z M 20.949219 28 L 42.949219 28 C 43.800781 28 44.449219 28.648438 44.449219 29.5 C 44.449219 30.351562 43.800781 31 42.949219 31 L 20.949219 31 C 20.101562 31 19.449219 30.351562 19.449219 29.5 C 19.449219 28.648438 20.101562 28 20.949219 28 Z M 20.949219 35.5 L 42.949219 35.5 C 43.800781 35.5 44.449219 36.148438 44.449219 37 C 44.449219 37.851562 43.800781 38.5 42.949219 38.5 L 20.949219 38.5 C 20.101562 38.5 19.449219 37.851562 19.449219 37 C 19.449219 36.148438 20.101562 35.5 20.949219 35.5 Z M 20.949219 35.5 "/>
</g>
</svg>
