<svg width="49" height="49" xmlns="http://www.w3.org/2000/svg" clip-rule="evenodd">

 <g>
  <title>background</title>
  <rect fill="none" id="canvas_background" height="402" width="582" y="-1" x="-1"/>
 </g>
 <g>
  <title>Layer 1</title>
  <path id="svg_1" fill="#ffffff" d="m10.613,38.375c0,1.098 -0.89,1.987 -1.987,1.987c-1.01,0 -2.195,0 -3.013,0c-0.266,0 -0.52,-0.105 -0.708,-0.293c-0.187,-0.187 -0.292,-0.442 -0.292,-0.707c0,-0.552 0.447,-1 1,-1c1.184,0 3,0 3,0l0,-1c0,0 -0.5,0 -1,0c-0.553,0 -1,-0.447 -1,-1c0,-0.552 0.447,-1 1,-1c0.5,0 1,0 1,0l0,-1c0,0 -1.816,0 -3,0c-0.553,0 -1,-0.448 -1,-1c0,-0.265 0.105,-0.519 0.292,-0.707c0.188,-0.187 0.442,-0.293 0.708,-0.293c0.818,0 2.003,0 3.013,0c1.097,0 1.987,0.89 1.987,1.987c0,1.228 0,2.798 0,4.026zm32,-2.013c0,0.531 -0.211,1.039 -0.586,1.414c-0.375,0.376 -0.884,0.586 -1.414,0.586c-5.155,0 -18.846,0 -24,0c-0.531,0 -1.04,-0.21 -1.415,-0.586c-0.375,-0.375 -0.585,-0.883 -0.585,-1.414c0,-0.53 0.21,-1.039 0.585,-1.414c0.375,-0.375 0.884,-0.586 1.415,-0.586c5.154,0 18.845,0 24,0c0.53,0 1.039,0.211 1.414,0.586c0.375,0.375 0.586,0.884 0.586,1.414c0,0 0,0 0,0zm-32,-9c0,0.265 -0.106,0.52 -0.293,0.707c-0.188,0.188 -0.442,0.293 -0.707,0.293c-1.015,0 -2.59,0 -3.701,0c-0.345,0 -0.675,-0.137 -0.919,-0.38c-0.243,-0.244 -0.38,-0.575 -0.38,-0.919c0,-0.007 0,-0.014 0,-0.02c0,-0.31 0.111,-0.61 0.312,-0.846c0.876,-1.021 3.288,-3.835 3.288,-3.835c0,0 -1.535,0 -2.6,0c-0.266,0 -0.52,-0.105 -0.708,-0.293c-0.187,-0.187 -0.292,-0.442 -0.292,-0.707c0,-0.265 0.105,-0.519 0.292,-0.707c0.188,-0.187 0.442,-0.293 0.708,-0.293c1.012,0 2.582,0 3.692,0c0.722,0 1.308,0.586 1.308,1.308c0,0.003 0,0.006 0,0.009c0,0.312 -0.112,0.613 -0.315,0.85c-0.877,1.024 -3.285,3.833 -3.285,3.833c0,0 1.534,0 2.6,0c0.265,0 0.519,0.106 0.707,0.293c0.187,0.188 0.293,0.442 0.293,0.707c0,0 0,0 0,0zm32,-3c0,0.531 -0.211,1.039 -0.586,1.414c-0.375,0.376 -0.884,0.586 -1.414,0.586c-5.155,0 -18.846,0 -24,0c-0.531,0 -1.04,-0.21 -1.415,-0.586c-0.375,-0.375 -0.585,-0.883 -0.585,-1.414c0,-0.53 0.21,-1.039 0.585,-1.414c0.375,-0.375 0.884,-0.586 1.415,-0.586c5.154,0 18.845,0 24,0c0.53,0 1.039,0.211 1.414,0.586c0.375,0.375 0.586,0.884 0.586,1.414c0,0 0,0 0,0zm-34,-9c0,0.553 -0.448,1 -1,1c-0.266,0 -0.52,-0.105 -0.708,-0.293c-0.187,-0.187 -0.292,-0.442 -0.292,-0.707c0,-1.707 0,-5 0,-5c0,0 -0.5,0 -1,0c-0.553,0 -1,-0.447 -1,-1c0,-0.552 0.447,-1 1,-1c0.307,0 0.658,0 1.008,0c1.1,0 1.992,0.892 1.992,1.992c0,1.593 0,3.759 0,5.008zm34,-3c0,0.531 -0.211,1.039 -0.586,1.414c-0.375,0.376 -0.884,0.586 -1.414,0.586c-5.155,0 -18.846,0 -24,0c-0.531,0 -1.04,-0.21 -1.415,-0.586c-0.375,-0.375 -0.585,-0.883 -0.585,-1.414c0,-0.53 0.21,-1.039 0.585,-1.414c0.375,-0.375 0.884,-0.586 1.415,-0.586c5.154,0 18.845,0 24,0c0.53,0 1.039,0.211 1.414,0.586c0.375,0.375 0.586,0.884 0.586,1.414c0,0 0,0 0,0z"/>
 </g>
</svg>