<svg width="48" height="48" xmlns="http://www.w3.org/2000/svg">

 <g>
  <title>background</title>
  <rect fill="none" id="canvas_background" height="402" width="582" y="-1" x="-1"/>
 </g>
 <g>
  <title>Layer 1</title>
  <path id="svg_1" fill="none" d="m0,0l48,0l0,48l-48,0l0,-48z"/>
  <path fill="#ffffff" id="svg_2" d="m38,6l-8.37,0c-0.82,-2.32 -3.02,-4 -5.63,-4s-4.81,1.68 -5.63,4l-8.37,0c-2.21,0 -4,1.79 -4,4l0,28c0,2.21 1.79,4 4,4l28,0c2.21,0 4,-1.79 4,-4l0,-28c0,-2.21 -1.79,-4 -4,-4zm-14,0c1.1,0 2,0.89 2,2s-0.9,2 -2,2s-2,-0.89 -2,-2s0.9,-2 2,-2zm4,28l-14,0l0,-4l14,0l0,4zm6,-8l-20,0l0,-4l20,0l0,4zm0,-8l-20,0l0,-4l20,0l0,4z"/>
 </g>
</svg>