<?xml version="1.0" encoding="UTF-8" standalone="no"?>
<svg
   xmlns:dc="http://purl.org/dc/elements/1.1/"
   xmlns:cc="http://creativecommons.org/ns#"
   xmlns:rdf="http://www.w3.org/1999/02/22-rdf-syntax-ns#"
   xmlns:svg="http://www.w3.org/2000/svg"
   xmlns="http://www.w3.org/2000/svg"
   id="svg8"
   version="1.1"
   viewBox="0 0 105.83334 105.83334"
   height="400.00003"
   width="400.00003">
  <defs
     id="defs2" />
  <metadata
     id="metadata5">
    <rdf:RDF>
      <cc:Work
         rdf:about="">
        <dc:format>image/svg+xml</dc:format>
        <dc:type
           rdf:resource="http://purl.org/dc/dcmitype/StillImage" />
        <dc:title></dc:title>
      </cc:Work>
    </rdf:RDF>
  </metadata>
  <g
     transform="translate(-18.668364,-77.26947)"
     id="layer1">
    <rect
       ry="6.6145835"
       rx="6.6145835"
       y="79.253845"
       x="20.652739"
       height="101.86459"
       width="101.86459"
       id="rect815"
       style="opacity:1;fill:#0079c1;fill-opacity:1;fill-rule:nonzero;stroke:#ffffff;stroke-width:3.96875;stroke-linecap:butt;stroke-linejoin:miter;stroke-miterlimit:4;stroke-dasharray:none;stroke-opacity:1" />
    <g
       id="text819"
       style="font-style:normal;font-variant:normal;font-weight:normal;font-stretch:normal;font-size:84.91120911px;line-height:125%;font-family:'Transport New';-inkscape-font-specification:'Transport New';text-align:center;letter-spacing:0px;word-spacing:0px;writing-mode:lr-tb;text-anchor:middle;fill:#ffffff;fill-opacity:1;stroke:none;stroke-width:0.26458332px;stroke-linecap:butt;stroke-linejoin:miter;stroke-opacity:1"
       aria-label="2">
      <path
         id="path1921"
         style="fill:#ffffff;stroke-width:0.26458332px"
         d="M 93.290466,153.06972 H 67.222725 c 4.24556,-2.63225 7.72692,-5.09467 11.802658,-8.74586 9.085499,-8.15147 14.180172,-17.06715 14.180172,-26.23756 0,-13.07633 -8.066565,-22.246736 -22.076915,-22.246736 -14.09526,0 -22.076914,9.679876 -21.737269,22.841116 l 0.08491,2.03787 h 11.038457 c -1.103846,-7.64201 2.037869,-14.77455 10.52899,-14.77455 7.642009,0 10.52899,5.68905 10.52899,12.05739 0,10.6139 -8.576032,18.00118 -12.906504,21.56745 -5.858873,4.83994 -13.585793,10.10443 -19.189933,13.50088 v 10.18934 h 43.814184 z" />
    </g>
  </g>
</svg>
