<?xml version="1.0" encoding="UTF-8" standalone="no"?>
<svg
   xmlns:dc="http://purl.org/dc/elements/1.1/"
   xmlns:cc="http://creativecommons.org/ns#"
   xmlns:rdf="http://www.w3.org/1999/02/22-rdf-syntax-ns#"
   xmlns:svg="http://www.w3.org/2000/svg"
   xmlns="http://www.w3.org/2000/svg"
   id="svg8"
   version="1.1"
   viewBox="0 0 105.83334 105.83334"
   height="400.00003"
   width="400.00003">
  <defs
     id="defs2" />
  <metadata
     id="metadata5">
    <rdf:RDF>
      <cc:Work
         rdf:about="">
        <dc:format>image/svg+xml</dc:format>
        <dc:type
           rdf:resource="http://purl.org/dc/dcmitype/StillImage" />
        <dc:title></dc:title>
      </cc:Work>
    </rdf:RDF>
  </metadata>
  <g
     transform="translate(-18.668364,-77.26947)"
     id="layer1">
    <rect
       ry="6.6145835"
       rx="6.6145835"
       y="79.253845"
       x="20.652739"
       height="101.86459"
       width="101.86459"
       id="rect815"
       style="opacity:1;fill:#0079c1;fill-opacity:1;fill-rule:nonzero;stroke:#ffffff;stroke-width:3.96875;stroke-linecap:butt;stroke-linejoin:miter;stroke-miterlimit:4;stroke-dasharray:none;stroke-opacity:1" />
    <g
       id="text819"
       style="font-style:normal;font-variant:normal;font-weight:normal;font-stretch:normal;font-size:84.91120911px;line-height:125%;font-family:'Transport New';-inkscape-font-specification:'Transport New';text-align:center;letter-spacing:0px;word-spacing:0px;writing-mode:lr-tb;text-anchor:middle;fill:#ffffff;fill-opacity:1;stroke:none;stroke-width:0.26458332px;stroke-linecap:butt;stroke-linejoin:miter;stroke-opacity:1"
       aria-label="3">
      <path
         id="path1962"
         style="fill:#ffffff;stroke-width:0.26458332px"
         d="m 94.680887,144.49369 c 0,-7.04763 -2.971892,-13.24615 -8.236387,-15.70858 4.839939,-2.54733 7.642008,-7.47218 7.642008,-13.75561 0,-11.54793 -7.896742,-19.189936 -21.057979,-19.189936 -12.821593,0 -20.718335,5.858876 -23.690228,17.406796 l 10.52899,2.54734 c 1.35858,-5.43432 5.179584,-9.17041 12.057392,-9.17041 7.302364,0 10.868635,3.65118 10.868635,9.0855 0,6.96272 -6.538163,9.00058 -12.312126,9.0855 h -1.868046 v 9.51005 c 6.707985,-0.7642 14.859461,0.67929 14.859461,9.8497 0,6.96272 -4.585205,10.01952 -11.463013,10.01952 -6.877808,0 -11.717747,-4.67011 -12.65177,-11.3781 l -10.868635,2.46243 c 2.207692,11.80266 10.613901,19.27484 24.53934,19.27484 13.755615,0 21.652358,-7.81183 21.652358,-20.03904 z" />
    </g>
  </g>
</svg>
