<svg xmlns="http://www.w3.org/2000/svg" xmlns:xlink="http://www.w3.org/1999/xlink" version="1.1" width="256" height="256" viewBox="0 0 256 256" xml:space="preserve">
<desc>Created with Fabric.js 1.7.22</desc>
<defs>
</defs>
<g transform="translate(128 128) scale(0.72 0.72)" style="">
	<g style="stroke: none; stroke-width: 0; stroke-dasharray: none; stroke-linecap: butt; stroke-linejoin: miter; stroke-miterlimit: 10; fill: none; fill-rule: nonzero; opacity: 1;" transform="translate(-175.05 -175.05000000000004) scale(3.89 3.89)" >
	<path d="M 77.474 17.28 L 61.526 1.332 C 60.668 0.473 59.525 0 58.311 0 H 15.742 c -2.508 0 -4.548 2.04 -4.548 4.548 v 80.904 c 0 2.508 2.04 4.548 4.548 4.548 h 58.516 c 2.508 0 4.549 -2.04 4.549 -4.548 V 20.496 C 78.807 19.281 78.333 18.138 77.474 17.28 z M 61.073 5.121 l 12.611 12.612 H 62.35 c -0.704 0 -1.276 -0.573 -1.276 -1.277 V 5.121 z M 74.258 87 H 15.742 c -0.854 0 -1.548 -0.694 -1.548 -1.548 V 4.548 C 14.194 3.694 14.888 3 15.742 3 h 42.332 v 13.456 c 0 2.358 1.918 4.277 4.276 4.277 h 13.457 v 64.719 C 75.807 86.306 75.112 87 74.258 87 z" style="stroke: none; stroke-width: 1; stroke-dasharray: none; stroke-linecap: butt; stroke-linejoin: miter; stroke-miterlimit: 10; fill: rgb(255,255,255); fill-rule: nonzero; opacity: 1;" transform=" matrix(1 0 0 1 0 0) " stroke-linecap="round" />
	<path d="M 26.806 75.278 c -1.29 0 -2.11 -0.732 -2.473 -1.15 l -0.14 -0.162 l -0.089 -0.193 c -0.854 -1.853 -1.232 -4.745 1.809 -8.01 c 2.483 -2.666 6.624 -4.957 11.318 -6.697 c 1.585 -2.964 3.067 -6.128 4.265 -9.157 c -2.997 -4.992 -4.234 -10.248 -2.971 -13.719 c 0.709 -1.948 2.179 -3.174 4.14 -3.452 l 0.211 -0.015 c 2.147 0 3.689 1.282 4.232 3.516 c 0.729 3.003 -0.306 7.954 -2.271 13.335 c 0.745 1.108 1.601 2.216 2.567 3.293 c 0.912 1.101 1.842 2.1 2.771 2.999 c 5.057 -0.67 9.654 -0.562 12.521 0.52 c 3.231 1.219 3.771 3.396 3.804 4.586 l 0.001 0.03 c 0.016 1.91 -0.942 3.359 -2.63 3.976 c -3.511 1.286 -9.379 -1.229 -14.678 -5.943 c -3.251 0.526 -6.669 1.374 -9.849 2.472 c -3.526 6.359 -7.529 11.694 -10.478 13.216 C 28.081 75.126 27.395 75.278 26.806 75.278 z M 26.714 72.252 c 0.112 0.046 0.321 0.038 0.776 -0.197 c 1.955 -1.009 4.643 -4.384 7.299 -8.718 c -2.787 1.308 -5.143 2.82 -6.681 4.471 C 26.094 69.97 26.427 71.524 26.714 72.252 z M 53.291 58.535 c 4.155 3.122 7.893 4.232 9.55 3.624 c 0.321 -0.117 0.662 -0.31 0.659 -1.119 c -0.01 -0.333 -0.063 -1.169 -1.864 -1.849 C 59.685 58.454 56.703 58.272 53.291 58.535 z M 43.53 52.896 c -0.677 1.611 -1.421 3.235 -2.208 4.829 c 1.733 -0.499 3.498 -0.924 5.243 -1.266 c -0.488 -0.526 -0.967 -1.072 -1.432 -1.634 C 44.57 54.198 44.035 53.553 43.53 52.896 z M 42.982 35.724 c -0.531 0.094 -1.232 0.375 -1.639 1.492 c -0.705 1.937 -0.214 5.265 1.519 8.907 c 1.234 -3.82 1.822 -7.146 1.329 -9.176 C 43.936 35.892 43.479 35.739 42.982 35.724 z" style="stroke: none; stroke-width: 1; stroke-dasharray: none; stroke-linecap: butt; stroke-linejoin: miter; stroke-miterlimit: 10; fill: rgb(255,255,255); fill-rule: nonzero; opacity: 1;" transform=" matrix(1 0 0 1 0 0) " stroke-linecap="round" />
</g>
</g>
</svg>