<?xml version="1.0" encoding="utf-8"?>
<!-- Generator: Adobe Illustrator 16.0.0, SVG Export Plug-In . SVG Version: 6.00 Build 0)  -->
<!DOCTYPE svg PUBLIC "-//W3C//DTD SVG 1.1//EN" "http://www.w3.org/Graphics/SVG/1.1/DTD/svg11.dtd">
<svg version="1.1" id="Camada_1" xmlns="http://www.w3.org/2000/svg" xmlns:xlink="http://www.w3.org/1999/xlink" x="0px" y="0px"
	 width="141.732px" height="141.732px" viewBox="0 0 141.732 141.732" enable-background="new 0 0 141.732 141.732"
	 xml:space="preserve">
<path fill-rule="evenodd" clip-rule="evenodd" fill="#2259A6" d="M102.883,115.537c-20.363,0-40.726,0-61.089,0
	c-0.188-0.053-0.373-0.118-0.564-0.155c-2.487-0.481-4.563-1.618-5.963-3.797c-0.862-1.341-1.173-2.808-1.171-4.418
	c0.03-18.737,0.019-37.475,0.019-56.211c0-4.976,0.028-9.951-0.015-14.927c-0.015-1.735,0.635-3.202,1.593-4.543
	c0.445-0.623,1.12-1.092,1.728-1.585c1.272-1.032,2.836-1.354,4.374-1.73c13.139,0,26.278,0,39.418,0
	c0,5.915,0.026,11.829-0.015,17.742c-0.014,2.024,0.686,3.753,2.056,5.132c1.899,1.91,4.3,2.732,6.999,2.727
	c6.426-0.014,12.852-0.005,19.277-0.005c0.329,0,0.657,0,1.032,0c0,0.399,0,0.68,0,0.961c0,17.543,0,35.086-0.001,52.63
	c0,0.284,0.003,0.568-0.012,0.853c-0.132,2.583-1.411,4.519-3.594,5.753C105.702,114.672,104.247,115.024,102.883,115.537z
	 M75.33,74.413c4.774,0,9.55,0.009,14.324-0.012c0.556-0.003,1.139-0.095,1.662-0.278c1.644-0.576,2.105-2.295,1.076-3.679
	c-0.69-0.928-1.633-1.15-2.694-1.15c-9.578,0-19.156-0.002-28.734,0.006c-0.449,0.001-0.911,0.046-1.344,0.156
	c-1.684,0.432-2.526,2.313-1.584,3.661c0.65,0.931,1.642,1.307,2.799,1.303C65.666,74.403,70.498,74.413,75.33,74.413z
	 M75.333,84.651c4.775,0,9.55,0.008,14.325-0.012c0.527-0.002,1.077-0.096,1.579-0.261c1.708-0.563,2.208-2.284,1.153-3.699
	c-0.691-0.927-1.635-1.147-2.695-1.147c-9.578,0-19.156-0.002-28.734,0.007c-0.449,0-0.911,0.045-1.344,0.156
	c-1.682,0.433-2.523,2.317-1.58,3.663c0.652,0.93,1.644,1.304,2.801,1.3C65.67,84.641,70.502,84.651,75.333,84.651z M75.327,94.889
	c4.774,0,9.55,0.009,14.324-0.012c0.556-0.003,1.139-0.095,1.662-0.277c1.646-0.575,2.109-2.295,1.081-3.678
	c-0.668-0.897-1.575-1.15-2.607-1.15c-9.636-0.003-19.271-0.004-28.905,0.005c-0.448,0.001-0.913,0.049-1.342,0.171
	c-1.631,0.464-2.426,2.323-1.505,3.644c0.65,0.931,1.641,1.309,2.798,1.305C65.663,94.88,70.495,94.889,75.327,94.889z
	 M48.895,74.409c1.609-0.014,2.809-1.125,2.792-2.586c-0.017-1.455-1.24-2.539-2.851-2.527c-1.646,0.012-2.937,1.128-2.944,2.543
	C45.885,73.289,47.211,74.424,48.895,74.409z M48.835,84.648c1.61,0.013,2.833-1.071,2.853-2.526
	c0.019-1.46-1.181-2.572-2.791-2.587c-1.687-0.016-3.012,1.116-3.004,2.567C45.899,83.518,47.189,84.635,48.835,84.648z
	 M48.877,94.886c1.612-0.006,2.816-1.106,2.81-2.568c-0.006-1.463-1.216-2.55-2.833-2.546c-1.642,0.004-2.945,1.115-2.961,2.525
	C45.875,93.746,47.198,94.892,48.877,94.886z"/>
<path fill-rule="evenodd" clip-rule="evenodd" fill="#2259A6" d="M108.863,48.646c-4.361,0-8.513,0-12.663,0
	c-1.99,0-3.983-0.056-5.972,0.018c-1.672,0.062-3.303-1.273-3.256-3.187c0.121-4.917,0.04-9.839,0.04-14.758
	c0-0.277,0-0.555,0-1.093C94.352,36.014,101.526,42.259,108.863,48.646z"/>
</svg>
