<?xml version="1.0" encoding="utf-8"?>
<!-- Generator: Adobe Illustrator 16.0.0, SVG Export Plug-In . SVG Version: 6.00 Build 0)  -->
<!DOCTYPE svg PUBLIC "-//W3C//DTD SVG 1.1//EN" "http://www.w3.org/Graphics/SVG/1.1/DTD/svg11.dtd">
<svg version="1.1" xmlns="http://www.w3.org/2000/svg" xmlns:xlink="http://www.w3.org/1999/xlink" x="0px" y="0px"
	 width="141.732px" height="141.732px" viewBox="0 0 141.732 141.732" enable-background="new 0 0 141.732 141.732"
	 xml:space="preserve">
<g id="Camada_1">
	<circle fill="#2259A6" cx="71.097" cy="70.938" r="68.383"/>
</g>
<g id="Camada_2">
	<g>
		
			<text transform="matrix(1.0791 -0.0271 0.0251 0.9997 48.6296 108.4392)" fill="#FFFFFF" font-family="'Gotham-Book'" font-size="9.7737" letter-spacing="1.853">BAHIA</text>
		<g>
			<circle fill="#FFFFFF" cx="74.146" cy="95.203" r="1.664"/>
			<circle fill="#FFFFFF" cx="80.678" cy="94.841" r="1.482"/>
			<circle fill="#FFFFFF" cx="86.867" cy="94.819" r="1.402"/>
			<circle fill="#FFFFFF" cx="93.229" cy="94.55" r="1.331"/>
			<circle fill="#FFFFFF" cx="98.914" cy="94.085" r="1.149"/>
			<circle fill="#FFFFFF" cx="104.904" cy="94.105" r="1.088"/>
			<circle fill="#FFFFFF" cx="110.146" cy="93.823" r="0.927"/>
			<circle fill="#FFFFFF" cx="115.649" cy="93.54" r="0.827"/>
			<circle fill="#FFFFFF" cx="120.105" cy="93.661" r="0.726"/>
			<circle fill="#FFFFFF" cx="125.145" cy="93.338" r="0.585"/>
			<circle fill="#FFFFFF" cx="67.699" cy="95.285" r="1.663"/>
			<circle fill="#FFFFFF" cx="61.651" cy="95.808" r="1.482"/>
			<circle fill="#FFFFFF" cx="55.22" cy="95.829" r="1.402"/>
			<circle fill="#FFFFFF" cx="49.1" cy="96.08" r="1.331"/>
			<circle fill="#FFFFFF" cx="43.293" cy="96.383" r="1.149"/>
			<circle fill="#FFFFFF" cx="37.507" cy="96.504" r="1.089"/>
			<circle fill="#FFFFFF" cx="32.103" cy="96.867" r="0.928"/>
			<circle fill="#FFFFFF" cx="26.68" cy="97.048" r="0.827"/>
			<circle fill="#FFFFFF" cx="21.983" cy="96.988" r="0.726"/>
			<circle fill="#FFFFFF" cx="17.124" cy="97.371" r="0.584"/>
		</g>
		
			<text transform="matrix(0.9665 -0.0319 0.033 0.9995 8.5559 73.3113)" fill="#FFFFFF" font-family="'FuturaBT-Bold'" font-size="17.1954">UNIVERSIDADE</text>
		
			<text transform="matrix(0.9665 -0.0319 0.033 0.9995 17.8997 89.6824)" fill="#FFFFFF" font-family="'FuturaBT-Bold'" font-size="17.1954">PARA TODOS</text>
		
			<text transform="matrix(1.0791 -0.0271 0.0251 0.9997 33.1765 56.3533)" fill="#FFFFFF" font-family="'Gotham-Book'" font-size="10.9325">PROGRAMA</text>
		<g>
			<circle fill="#FFFFFF" cx="74.333" cy="40.442" r="1.663"/>
			<circle fill="#FFFFFF" cx="80.623" cy="40.079" r="1.482"/>
			<circle fill="#FFFFFF" cx="87.054" cy="40.06" r="1.401"/>
			<circle fill="#FFFFFF" cx="93.174" cy="39.807" r="1.331"/>
			<circle fill="#FFFFFF" cx="98.981" cy="39.505" r="1.149"/>
			<circle fill="#FFFFFF" cx="104.767" cy="39.384" r="1.089"/>
			<circle fill="#FFFFFF" cx="110.171" cy="39.021" r="0.928"/>
			<circle fill="#FFFFFF" cx="115.594" cy="38.84" r="0.827"/>
			<circle fill="#FFFFFF" cx="120.291" cy="38.901" r="0.726"/>
			<circle fill="#FFFFFF" cx="125.151" cy="38.517" r="0.584"/>
			<circle fill="#FFFFFF" cx="67.458" cy="40.563" r="1.663"/>
			<circle fill="#FFFFFF" cx="61.167" cy="40.926" r="1.482"/>
			<circle fill="#FFFFFF" cx="55.3" cy="41.188" r="1.402"/>
			<circle fill="#FFFFFF" cx="49.02" cy="41.601" r="1.331"/>
			<circle fill="#FFFFFF" cx="43.375" cy="41.501" r="1.149"/>
			<circle fill="#FFFFFF" cx="37.427" cy="41.703" r="1.089"/>
			<circle fill="#FFFFFF" cx="32.265" cy="42.066" r="0.928"/>
			<circle fill="#FFFFFF" cx="26.68" cy="42.086" r="0.827"/>
			<circle fill="#FFFFFF" cx="21.923" cy="42.489" r="0.726"/>
			<circle fill="#FFFFFF" cx="17.043" cy="42.65" r="0.585"/>
		</g>
	</g>
</g>
</svg>
